<svg width="24" height="26" fill="none" xmlns="http://www.w3.org/2000/svg"><path d="m11.951.976 12.023 12.022-11.809 11.808L.143 12.784 11.951.976Z" fill="#fff"/><path d="M12 1.024c-6.617 0-12 5.383-12 12s5.383 12 12 12c2.104 0 4.08-.548 5.802-1.502a11.537 11.537 0 0 0 4.695-4.696A11.956 11.956 0 0 0 24 13.024c0-6.617-5.383-12-12-12Zm5.74 15.847a1.333 1.333 0 0 1-1.887 1.885L12 14.904l-3.853 3.854c-.503.502-1.383.502-1.885 0a1.334 1.334 0 0 1 0-1.887l3.853-3.853L6.26 9.165a1.333 1.333 0 0 1 0-1.885c.503-.504 1.382-.504 1.884 0L12 11.131l3.853-3.853c.503-.503 1.383-.503 1.885 0 .52.52.52 1.365 0 1.884l-3.854 3.853 3.856 3.855v.001Z" fill="#DA5D5D"/></svg>